<svg width="340" height="492" viewBox="0 0 189.92 274.96" xmlns="http://www.w3.org/2000/svg">
<style type="text/css">
	.st0{fill:none;stroke:#A7D494;stroke-miterlimit:10;}
	
		.st1{clip-path:url(#SVGID_00000059994272775322273040000007299705784798320522_);fill:none;stroke:#FEEAB1;stroke-width:2;stroke-miterlimit:10;}
	.st2{clip-path:url(#SVGID_00000074441646253690740630000017387057033688159653_);}
	.st3{fill:none;stroke:#FEEAB1;stroke-width:2;stroke-miterlimit:10;}
</style>
<g>
	<path class="st0" d="M0,0v274.96h189.92V0H0z M177.16,237.22H12.27V11.86h164.89V237.22z"/>
	<path class="st0" d="M0,0v274.96h189.92V0H0z M177.16,237.22H12.27V11.86h164.89V237.22z"/>
	<g>
		<defs>
			<path id="SVGID_1_" d="M0,0v274.96h189.92V0H0z M177.16,237.22H12.27V11.86h164.89V237.22z"/>
		</defs>
		<clipPath id="SVGID_00000138557776091467738410000013095437338516155279_">
			<use xlink:href="#SVGID_1_"  style="overflow:visible;"/>
		</clipPath>
		
			<line style="clip-path:url(#SVGID_00000138557776091467738410000013095437338516155279_);fill:none;stroke:#FEEAB1;stroke-width:2;stroke-miterlimit:10;" x1="252.34" y1="7.46" x2="-58.98" y2="7.46"/>
		
			<line style="clip-path:url(#SVGID_00000138557776091467738410000013095437338516155279_);fill:none;stroke:#FEEAB1;stroke-width:2;stroke-miterlimit:10;" x1="248.31" y1="33.56" x2="-63.02" y2="33.56"/>
		
			<line style="clip-path:url(#SVGID_00000138557776091467738410000013095437338516155279_);fill:none;stroke:#FEEAB1;stroke-width:2;stroke-miterlimit:10;" x1="244.27" y1="59.65" x2="-67.05" y2="59.65"/>
		
			<line style="clip-path:url(#SVGID_00000138557776091467738410000013095437338516155279_);fill:none;stroke:#FEEAB1;stroke-width:2;stroke-miterlimit:10;" x1="240.24" y1="85.75" x2="-71.08" y2="85.75"/>
		
			<line style="clip-path:url(#SVGID_00000138557776091467738410000013095437338516155279_);fill:none;stroke:#FEEAB1;stroke-width:2;stroke-miterlimit:10;" x1="236.2" y1="111.85" x2="-75.12" y2="111.85"/>
		
			<line style="clip-path:url(#SVGID_00000138557776091467738410000013095437338516155279_);fill:none;stroke:#FEEAB1;stroke-width:2;stroke-miterlimit:10;" x1="232.17" y1="137.95" x2="-79.15" y2="137.95"/>
		
			<line style="clip-path:url(#SVGID_00000138557776091467738410000013095437338516155279_);fill:none;stroke:#FEEAB1;stroke-width:2;stroke-miterlimit:10;" x1="228.14" y1="164.04" x2="-83.19" y2="164.04"/>
		
			<line style="clip-path:url(#SVGID_00000138557776091467738410000013095437338516155279_);fill:none;stroke:#FEEAB1;stroke-width:2;stroke-miterlimit:10;" x1="224.1" y1="190.14" x2="-87.22" y2="190.14"/>
		
			<line style="clip-path:url(#SVGID_00000138557776091467738410000013095437338516155279_);fill:none;stroke:#FEEAB1;stroke-width:2;stroke-miterlimit:10;" x1="220.07" y1="216.24" x2="-91.26" y2="216.24"/>
		
			<line style="clip-path:url(#SVGID_00000138557776091467738410000013095437338516155279_);fill:none;stroke:#FEEAB1;stroke-width:2;stroke-miterlimit:10;" x1="216.03" y1="242.33" x2="-95.29" y2="242.33"/>
		
			<line style="clip-path:url(#SVGID_00000138557776091467738410000013095437338516155279_);fill:none;stroke:#FEEAB1;stroke-width:2;stroke-miterlimit:10;" x1="212" y1="268.43" x2="-99.33" y2="268.43"/>
	</g>
	<g>
		<defs>
			<path id="SVGID_00000035490938330444311960000009961831391931120053_" d="M0,0v274.96h189.92V0H0z M177.16,237.22H12.27V11.86
				h164.89V237.22z"/>
		</defs>
		<clipPath id="SVGID_00000037664164624797537940000013340450687848039850_">
			<use xlink:href="#SVGID_00000035490938330444311960000009961831391931120053_"  style="overflow:visible;"/>
		</clipPath>
		<g style="clip-path:url(#SVGID_00000037664164624797537940000013340450687848039850_);">
			<line class="st3" x1="6.68" y1="-22.04" x2="6.68" y2="280.06"/>
			<line class="st3" x1="26.21" y1="-22.04" x2="26.21" y2="280.06"/>
			<line class="st3" x1="45.73" y1="-22.04" x2="45.73" y2="280.06"/>
			<line class="st3" x1="65.26" y1="-22.04" x2="65.26" y2="280.06"/>
			<line class="st3" x1="84.79" y1="-22.04" x2="84.79" y2="280.06"/>
			<line class="st3" x1="104.31" y1="-22.04" x2="104.31" y2="280.06"/>
			<line class="st3" x1="123.84" y1="-22.04" x2="123.84" y2="280.06"/>
			<line class="st3" x1="143.36" y1="-22.04" x2="143.36" y2="280.06"/>
			<line class="st3" x1="162.89" y1="-22.04" x2="162.89" y2="280.06"/>
			<line class="st3" x1="182.41" y1="-22.04" x2="182.41" y2="280.06"/>
		</g>
	</g>
</g>
</svg>
