<svg width="37" height="36" viewBox="0 0 37 36" fill="none" xmlns="http://www.w3.org/2000/svg">
<rect x="1" y="1" width="35" height="34" rx="17" fill="white"/>
<path d="M26.3334 26.25V24.4167C26.3334 23.4442 25.9471 22.5116 25.2595 21.8239C24.5718 21.1363 23.6392 20.75 22.6667 20.75H15.3334C14.361 20.75 13.4283 21.1363 12.7407 21.8239C12.0531 22.5116 11.6667 23.4442 11.6667 24.4167V26.25" stroke="black" stroke-width="2" stroke-linecap="round" stroke-linejoin="round"/>
<path d="M18.9999 17.0833C21.025 17.0833 22.6666 15.4417 22.6666 13.4167C22.6666 11.3916 21.025 9.75 18.9999 9.75C16.9749 9.75 15.3333 11.3916 15.3333 13.4167C15.3333 15.4417 16.9749 17.0833 18.9999 17.0833Z" stroke="black" stroke-width="2" stroke-linecap="round" stroke-linejoin="round"/>
<rect x="1" y="1" width="35" height="34" rx="17" stroke="black" stroke-width="2"/>
</svg>
