<svg width="20" height="20" viewBox="0 0 20 20" fill="none" xmlns="http://www.w3.org/2000/svg">
<path d="M4.5 14.5H3.25C1.45507 14.5 0 13.0449 0 11.25V3.25C0 1.45507 1.45508 0 3.25 0H11.25C13.0449 0 14.5 1.45508 14.5 3.25V4.5H12.8477L13 4.34766V3.25C13 3.01859 12.9551 2.79767 12.8735 2.59549L10.969 4.5H8.8477L11.7693 1.57834C11.6052 1.52743 11.4308 1.5 11.25 1.5H9.969L1.5 9.969V11.25C1.5 11.4308 1.52742 11.6052 1.57834 11.7693L4.5 8.8477V10.969L2.59548 12.8735C2.79767 12.9551 3.01859 13 3.25 13H4.34766L4.5 12.8477V14.5ZM7.84766 1.5H5.96898L1.5 5.96898V7.84766L7.84766 1.5ZM3.84766 1.5H3.25C2.2835 1.5 1.5 2.2835 1.5 3.25V3.84766L3.84766 1.5ZM20 16.75C20 18.5449 18.5449 20 16.75 20H8.75C6.95508 20 5.5 18.5449 5.5 16.75V8.75C5.5 6.95507 6.95508 5.5 8.75 5.5H16.75C18.5449 5.5 20 6.95507 20 8.75V16.75ZM16.75 18.5C17.7165 18.5 18.5 17.7165 18.5 16.75V8.75C18.5 7.7835 17.7165 7 16.75 7H8.75C7.78351 7 7 7.7835 7 8.75V16.75C7 17.7165 7.7835 18.5 8.75 18.5H16.75Z" fill="#898989"/>
</svg>
