<svg width="49" height="48" viewBox="0 0 49 48" fill="none" xmlns="http://www.w3.org/2000/svg">
<path d="M46.5 13C46.5 19.0751 41.5752 24 35.5 24C29.4248 24 24.5 19.0751 24.5 13C24.5 6.92486 29.4248 2 35.5 2C41.5752 2 46.5 6.92486 46.5 13ZM36.5 7C36.5 6.44772 36.0522 6 35.5 6C34.9478 6 34.5 6.44772 34.5 7V16.5858L31.2072 13.2929C30.8166 12.9024 30.1834 12.9024 29.7928 13.2929C29.4024 13.6834 29.4024 14.3166 29.7928 14.7071L34.7928 19.7071C35.1834 20.0976 35.8166 20.0976 36.2072 19.7071L41.2072 14.7071C41.5976 14.3166 41.5976 13.6834 41.2072 13.2929C40.8166 12.9024 40.1834 12.9024 39.7928 13.2929L36.5 16.5858V7ZM35.5 26C38.9918 26 42.162 24.6234 44.4976 22.383V31.5036C44.4976 33.8854 42.6474 35.8348 40.3058 35.9932L39.9976 36.0036L31.498 36.003V40.999L35 41C35.8284 41 36.5 41.6714 36.5 42.5C36.5 43.2592 35.9356 43.8868 35.2036 43.9862L35 44H14C13.1716 44 12.5 43.3284 12.5 42.5C12.5 41.7406 13.0643 41.113 13.7965 41.0136L14 41L17.498 40.999V36.003L9 36.0036C6.61828 36.0036 4.66872 34.1532 4.51038 31.8116L4.5 31.5036V10.499C4.5 8.1173 6.35032 6.16774 8.6919 6.0094L9 5.99902H24.5442C23.2502 8.01982 22.5 10.4223 22.5 13C22.5 20.1798 28.3202 26 35.5 26ZM28.496 36.003H20.496L20.498 41H28.498L28.496 36.003Z" fill="white"/>
</svg>
