<svg width="21" height="20" viewBox="0 0 21 20" fill="none" xmlns="http://www.w3.org/2000/svg">
<path d="M17.25 20C19.0449 20 20.5 18.5449 20.5 16.75V8.75C20.5 6.95508 19.0449 5.5 17.25 5.5H16V7H17.25C18.2165 7 19 7.7835 19 8.75V16.75C19 17.7165 18.2165 18.5 17.25 18.5H9.25C8.2835 18.5 7.5 17.7165 7.5 16.75V15.5H6V16.75C6 18.5449 7.45507 20 9.25 20H17.25ZM11.75 14.5C13.5449 14.5 15 13.0449 15 11.25V3.25C15 1.45508 13.5449 0 11.75 0H3.75C1.95508 0 0.5 1.45508 0.5 3.25V11.25C0.5 13.0449 1.95507 14.5 3.75 14.5H11.75ZM13.5 11.25C13.5 12.2165 12.7165 13 11.75 13H10.9692L13.5 10.4692V11.25ZM13.5 8.469L8.969 13H6.96901L13.5 6.46901V8.469ZM4.84769 13H3.75C3.51854 13 3.29757 12.9551 3.09534 12.8734L13.3734 2.59535C13.4551 2.79757 13.5 3.01854 13.5 3.25V4.34769L4.84769 13ZM2.07829 11.7692C2.02741 11.6051 2 11.4308 2 11.25V9.969L10.469 1.5H11.75C11.9308 1.5 12.1051 1.52741 12.2692 1.5783L2.07829 11.7692ZM2 7.84766V5.96898L6.46898 1.5H8.34766L2 7.84766ZM2 3.84766V3.25C2 2.2835 2.7835 1.5 3.75 1.5H4.34766L2 3.84766Z" fill="#898989"/>
</svg>
