<svg width="193" height="48" viewBox="0 0 193 48" fill="none" xmlns="http://www.w3.org/2000/svg">
<path d="M19.294 11.7273C19.294 13.3134 18.9933 14.6629 18.392 15.7756C17.7954 16.8883 16.981 17.7382 15.9488 18.3253C14.9213 18.9077 13.766 19.1989 12.4829 19.1989C11.1903 19.1989 10.0302 18.9053 9.00277 18.3182C7.97531 17.7311 7.16328 16.8812 6.56669 15.7685C5.9701 14.6558 5.6718 13.3087 5.6718 11.7273C5.6718 10.1411 5.9701 8.79167 6.56669 7.67898C7.16328 6.56629 7.97531 5.71875 9.00277 5.13636C10.0302 4.54924 11.1903 4.25568 12.4829 4.25568C13.766 4.25568 14.9213 4.54924 15.9488 5.13636C16.981 5.71875 17.7954 6.56629 18.392 7.67898C18.9933 8.79167 19.294 10.1411 19.294 11.7273ZM16.1761 11.7273C16.1761 10.6998 16.0222 9.83333 15.7144 9.12784C15.4114 8.42235 14.9829 7.88731 14.4289 7.52273C13.8749 7.15814 13.2263 6.97585 12.4829 6.97585C11.7395 6.97585 11.0908 7.15814 10.5369 7.52273C9.98288 7.88731 9.55201 8.42235 9.24425 9.12784C8.94122 9.83333 8.7897 10.6998 8.7897 11.7273C8.7897 12.7547 8.94122 13.6212 9.24425 14.3267C9.55201 15.0322 9.98288 15.5672 10.5369 15.9318C11.0908 16.2964 11.7395 16.4787 12.4829 16.4787C13.2263 16.4787 13.8749 16.2964 14.4289 15.9318C14.9829 15.5672 15.4114 15.0322 15.7144 14.3267C16.0222 13.6212 16.1761 12.7547 16.1761 11.7273ZM33.9382 4.45455V19H31.282L24.9538 9.84517H24.8473V19H21.772V4.45455H24.4709L30.7493 13.6023H30.8771V4.45455H33.9382ZM36.679 19V4.45455H39.7543V10.456H45.9972V4.45455H49.0654V19H45.9972V12.9915H39.7543V19H36.679Z" fill="white"/>
<path d="M8.5935 43V28.4545H14.3321C15.4354 28.4545 16.3752 28.6652 17.1517 29.0866C17.9283 29.5033 18.5201 30.0833 18.9273 30.8267C19.3392 31.5653 19.5452 32.4176 19.5452 33.3835C19.5452 34.3494 19.3369 35.2017 18.9202 35.9403C18.5035 36.679 17.8998 37.2543 17.1091 37.6662C16.3231 38.0781 15.3714 38.2841 14.254 38.2841H10.5963V35.8196H13.7569C14.3487 35.8196 14.8364 35.7178 15.2199 35.5142C15.6082 35.3059 15.897 35.0194 16.0864 34.6548C16.2805 34.2855 16.3776 33.8617 16.3776 33.3835C16.3776 32.9006 16.2805 32.4792 16.0864 32.1193C15.897 31.7547 15.6082 31.473 15.2199 31.2741C14.8317 31.0705 14.3392 30.9688 13.7426 30.9688H11.6688V43H8.5935ZM35.1092 35.7273C35.1092 37.3134 34.8085 38.6629 34.2072 39.7756C33.6106 40.8883 32.7962 41.7382 31.764 42.3253C30.7366 42.9077 29.5813 43.1989 28.2981 43.1989C27.0055 43.1989 25.8455 42.9053 24.818 42.3182C23.7905 41.7311 22.9785 40.8812 22.3819 39.7685C21.7853 38.6558 21.487 37.3087 21.487 35.7273C21.487 34.1411 21.7853 32.7917 22.3819 31.679C22.9785 30.5663 23.7905 29.7187 24.818 29.1364C25.8455 28.5492 27.0055 28.2557 28.2981 28.2557C29.5813 28.2557 30.7366 28.5492 31.764 29.1364C32.7962 29.7187 33.6106 30.5663 34.2072 31.679C34.8085 32.7917 35.1092 34.1411 35.1092 35.7273ZM31.9913 35.7273C31.9913 34.6998 31.8374 33.8333 31.5297 33.1278C31.2266 32.4223 30.7981 31.8873 30.2441 31.5227C29.6902 31.1581 29.0415 30.9759 28.2981 30.9759C27.5547 30.9759 26.9061 31.1581 26.3521 31.5227C25.7981 31.8873 25.3672 32.4223 25.0595 33.1278C24.7565 33.8333 24.6049 34.6998 24.6049 35.7273C24.6049 36.7547 24.7565 37.6212 25.0595 38.3267C25.3672 39.0322 25.7981 39.5672 26.3521 39.9318C26.9061 40.2964 27.5547 40.4787 28.2981 40.4787C29.0415 40.4787 29.6902 40.2964 30.2441 39.9318C30.7981 39.5672 31.2266 39.0322 31.5297 38.3267C31.8374 37.6212 31.9913 36.7547 31.9913 35.7273ZM37.5872 43V28.4545H40.6625V40.4645H46.8983V43H37.5872Z" fill="black"/>
</svg>
