<svg width="49" height="48" viewBox="0 0 49 48" fill="none" xmlns="http://www.w3.org/2000/svg">
<g clip-path="url(#clip0_2_3437)">
<path d="M32.6604 13.2599C32.5204 13.0599 32.3604 12.8799 32.2004 12.7199H32.1804C31.5604 12.0999 30.8004 11.6199 29.9604 11.3399L27.2004 10.4399C27.0004 10.3599 26.8004 10.2199 26.6804 10.0399C26.5404 9.85994 26.4804 9.63994 26.4804 9.41994C26.4804 9.19994 26.5404 8.97994 26.6804 8.79994C26.8004 8.61994 26.9804 8.47994 27.2004 8.39994L29.9604 7.49994C30.8004 7.21994 31.5404 6.73994 32.1604 6.11994C32.7404 5.51994 33.2004 4.77994 33.5004 3.97994V3.91994L34.4004 1.15994C34.4804 0.959941 34.6204 0.759941 34.8004 0.639941C34.9804 0.499941 35.2004 0.439941 35.4204 0.439941C35.6404 0.439941 35.8604 0.519941 36.0404 0.639941C36.2204 0.759941 36.3604 0.939941 36.4404 1.15994L37.3404 3.91994C37.6204 4.75994 38.1004 5.51994 38.7204 6.13994C39.3404 6.77994 40.1004 7.23994 40.9404 7.51994L43.7004 8.41994H43.7604C43.9604 8.49994 44.1404 8.63994 44.2804 8.81994C44.4204 8.99994 44.4804 9.21994 44.4804 9.43994C44.4804 9.65994 44.4204 9.87994 44.2804 10.0599C44.1604 10.2399 43.9804 10.3799 43.7604 10.4599L41.0004 11.3599C40.1604 11.6399 39.4004 12.1199 38.7804 12.7399C38.1404 13.3599 37.6804 14.1199 37.4004 14.9599L36.4804 17.7199V17.7799C36.4004 17.9599 36.2604 18.1199 36.1004 18.2399C35.9204 18.3799 35.7004 18.4399 35.4804 18.4399C35.2604 18.4399 35.0404 18.3799 34.8604 18.2399C34.6804 18.1199 34.5404 17.9399 34.4604 17.7199L33.5604 14.9599C33.3604 14.3399 33.0604 13.7599 32.6604 13.2599ZM48.0604 20.86L46.5204 20.38C46.0404 20.22 45.6204 19.9599 45.2804 19.6199C44.9404 19.2599 44.6804 18.8399 44.5204 18.3799L44.0204 16.8599C43.9804 16.7399 43.9004 16.6399 43.8004 16.5599C43.7004 16.4799 43.5804 16.4399 43.4604 16.4399C43.3404 16.4399 43.2204 16.4799 43.1204 16.5599C43.0204 16.6399 42.9404 16.7399 42.9004 16.8599L42.4004 18.3799C42.2604 18.8399 42.0004 19.2599 41.6604 19.5999C41.3204 19.9399 40.9004 20.2 40.4404 20.36L38.9004 20.86C38.7804 20.9 38.6804 20.98 38.6004 21.08C38.5204 21.18 38.4804 21.3 38.4804 21.42C38.4804 21.54 38.5204 21.66 38.6004 21.76C38.6804 21.86 38.7804 21.94 38.9004 21.98L40.4404 22.48C40.9004 22.62 41.3404 22.9 41.6804 23.24C42.0204 23.58 42.2804 24.02 42.4404 24.48L42.9404 26C42.9804 26.12 43.0604 26.22 43.1604 26.3C43.2604 26.38 43.3804 26.42 43.5004 26.42C43.6204 26.42 43.7404 26.38 43.8404 26.3C43.9404 26.22 44.0204 26.12 44.0604 26L44.5604 24.48C44.7204 24 44.9804 23.58 45.3204 23.24C45.6804 22.9 46.1004 22.64 46.5604 22.48L48.1004 21.98C48.2204 21.94 48.3204 21.86 48.4004 21.76C48.4804 21.66 48.5 21.54 48.5 21.42C48.5 21.3 48.4804 21.18 48.4004 21.08C48.3214 20.9812 48.1876 20.9218 48.0604 20.86ZM39.58 25.42L40.1 27.02C40.2 27.3 40.34 27.52 40.5 27.76V39.92C40.5 42.4 38.48 44.42 36 44.42H13C10.52 44.42 8.5 42.4 8.5 39.92V8.91992C8.5 6.43992 10.52 4.41992 13 4.41992H29.52C29.38 4.49992 29.22 4.57992 29.08 4.63992L26.24 5.55992C25.44 5.85992 24.74 6.35992 24.26 7.05992C23.76 7.75992 23.5 8.55992 23.5 9.41992C23.5 10.2799 23.76 11.0999 24.24 11.7799C24.3954 12.0045 24.5958 12.1843 24.7892 12.358C24.8196 12.3854 24.85 12.4127 24.88 12.4399H16C15.18 12.4399 14.5 13.1199 14.5 13.9399C14.5 14.7599 15.18 15.4399 16 15.4399H30.48C30.5022 15.4787 30.5258 15.5175 30.5498 15.5567C30.6124 15.659 30.6766 15.7642 30.72 15.8799L31.64 18.6999C31.92 19.4999 32.44 20.18 33.14 20.68C33.84 21.16 34.66 21.42 35.5 21.42C35.5 22.16 35.72 22.88 36.16 23.5C36.6 24.12 37.2 24.56 37.98 24.84L39.58 25.42ZM16 35.42H33C33.82 35.42 34.5 34.74 34.5 33.92C34.5 33.1 33.82 32.42 33 32.42H16C15.18 32.42 14.5 33.1 14.5 33.92C14.5 34.74 15.18 35.42 16 35.42ZM16 25.42H33C33.82 25.42 34.5 24.74 34.5 23.92C34.5 23.1 33.82 22.42 33 22.42H16C15.18 22.42 14.5 23.1 14.5 23.92C14.5 24.74 15.18 25.42 16 25.42Z" fill="white"/>
</g>
<defs>
<clipPath id="clip0_2_3437">
<rect width="48" height="48" fill="white" transform="translate(0.5)"/>
</clipPath>
</defs>
</svg>
