<svg width="15" height="18" viewBox="0 0 15 18" fill="none" xmlns="http://www.w3.org/2000/svg">
<path d="M6.5 16.0001H12.25C12.6642 16.0001 13 16.3359 13 16.7501C13 17.1643 12.6642 17.5001 12.25 17.5001H6.5C2.91015 17.5001 0 14.59 0 11.0001C0 7.41028 2.91015 4.50013 6.5 4.50013H12.4503L9.8336 1.88336C9.5407 1.59046 9.5407 1.11559 9.8336 0.822702C10.1264 0.529802 10.6013 0.529802 10.8942 0.822702L14.7765 4.70503C14.8762 4.80467 14.9419 4.92537 14.9738 5.0528C14.9909 5.11567 15 5.18184 15 5.25013C15 5.46305 14.9113 5.65524 14.7688 5.79176L10.8887 9.67183C10.5958 9.96473 10.121 9.96473 9.8281 9.67183C9.5352 9.37893 9.5352 8.90403 9.8281 8.61113L12.4391 6.00013H6.5C3.73858 6.00013 1.5 8.23873 1.5 11.0001C1.5 13.7615 3.73858 16.0001 6.5 16.0001Z" fill="#242424"/>
</svg>
