<svg width="22" height="22" viewBox="0 0 22 22" fill="none" xmlns="http://www.w3.org/2000/svg">
<path d="M13 15.75C13 14.2312 14.2312 13 15.75 13H19.25C20.7688 13 22 14.2312 22 15.75V19.25C22 20.7688 20.7688 22 19.25 22H15.75C14.2312 22 13 20.7688 13 19.25V15.75ZM15.75 14.5C15.0596 14.5 14.5 15.0596 14.5 15.75V19.25C14.5 19.9404 15.0596 20.5 15.75 20.5H19.25C19.9404 20.5 20.5 19.9404 20.5 19.25V15.75C20.5 15.0596 19.9404 14.5 19.25 14.5H15.75ZM5 10V13.75C5 15.5449 6.45507 17 8.25 17H12V15.75C12 15.666 12.0028 15.5826 12.0082 15.5H11.6838L12.0505 15.1334C12.3114 13.5563 13.5563 12.3114 15.1334 12.0505L15.5 11.6838V12.0082C15.5826 12.0028 15.666 12 15.75 12H17V8.25C17 6.45507 15.5449 5 13.75 5H10V6.25C10 6.33401 9.9972 6.41737 9.9918 6.5H10.5625L9.8842 7.17828C9.5467 8.50349 8.50349 9.5467 7.17828 9.8842L6.5 10.5625V9.9918C6.41737 9.9972 6.33401 10 6.25 10H5ZM12.6838 6.5H13.75C13.9899 6.5 14.2186 6.54829 14.4268 6.63569L6.63568 14.4268C6.54829 14.2186 6.5 13.9899 6.5 13.75V12.6838L12.6838 6.5ZM8.25 15.5C8.07803 15.5 7.91185 15.4752 7.75485 15.429L15.429 7.75486C15.4752 7.91185 15.5 8.07803 15.5 8.25V9.5625L9.5625 15.5H8.25ZM0 2.75C0 1.23122 1.23122 0 2.75 0H6.25C7.76878 0 9 1.23122 9 2.75V6.25C9 7.76878 7.76878 9 6.25 9H2.75C1.23122 9 0 7.76878 0 6.25V2.75ZM2.75 1.5C2.05964 1.5 1.5 2.05964 1.5 2.75V6.25C1.5 6.94036 2.05964 7.5 2.75 7.5H6.25C6.94036 7.5 7.5 6.94036 7.5 6.25V2.75C7.5 2.05964 6.94036 1.5 6.25 1.5H2.75Z" fill="#898989"/>
</svg>
