<svg width="23" height="22" viewBox="0 0 23 22" fill="none" xmlns="http://www.w3.org/2000/svg">
<path d="M0.5 2.75C0.5 1.23122 1.73122 0 3.25 0H6.75C8.26878 0 9.5 1.23122 9.5 2.75V4H8.75C8.49409 4 8.24346 4.02262 8 4.06597V2.75C8 2.05964 7.44036 1.5 6.75 1.5H3.25C2.55964 1.5 2 2.05964 2 2.75V6.25C2 6.94036 2.55964 7.5 3.25 7.5H4.56597C4.52262 7.74346 4.5 7.99409 4.5 8.25V9H3.25C1.73122 9 0.5 7.76878 0.5 6.25V2.75ZM13.5 18V19.25C13.5 20.7688 14.7312 22 16.25 22H19.75C21.2688 22 22.5 20.7688 22.5 19.25V15.75C22.5 14.2312 21.2688 13 19.75 13H18.5V13.75C18.5 14.0059 18.4774 14.2565 18.434 14.5H19.75C20.4404 14.5 21 15.0596 21 15.75V19.25C21 19.9404 20.4404 20.5 19.75 20.5H16.25C15.5596 20.5 15 19.9404 15 19.25V17.934C14.7565 17.9774 14.5059 18 14.25 18H13.5ZM8.75 5C6.95507 5 5.5 6.45507 5.5 8.25V13.75C5.5 15.5449 6.95507 17 8.75 17H14.25C16.0449 17 17.5 15.5449 17.5 13.75V8.25C17.5 6.45507 16.0449 5 14.25 5H8.75ZM11.0625 6.5L7 10.5625V8.68382L9.18382 6.5H11.0625ZM7 12.6838L13.1838 6.5H14.25C14.4899 6.5 14.7186 6.54829 14.9268 6.63569L7.13568 14.4268C7.04829 14.2186 7 13.9899 7 13.75V12.6838ZM8.25485 15.429L15.929 7.75486C15.9752 7.91185 16 8.07803 16 8.25V9.5625L10.0625 15.5H8.75C8.57803 15.5 8.41185 15.4752 8.25485 15.429ZM14.1875 15.5H12.1838L16 11.6838V13.75L15.9668 13.7168L14.1855 15.498L14.1875 15.5Z" fill="#898989"/>
</svg>
