<svg width="16" height="18" viewBox="0 0 16 18" fill="none" xmlns="http://www.w3.org/2000/svg">
<path d="M2.5 16.75C2.5 17.1642 2.83579 17.5 3.25 17.5H9.5C11.4786 17.5 13.0041 16.6773 14.0198 15.4258C15.0207 14.1926 15.5 12.5799 15.5 11C15.5 9.4201 15.0207 7.8074 14.0198 6.57425C13.0041 5.32266 11.4786 4.5 9.5 4.5H3.06066L5.5303 2.03033C5.8232 1.73744 5.8232 1.26256 5.5303 0.969668C5.23744 0.676777 4.76256 0.676777 4.46967 0.969668L0.719668 4.71967C0.426777 5.01256 0.426777 5.48744 0.719668 5.78033L4.46967 9.5303C4.76256 9.8232 5.23744 9.8232 5.5303 9.5303C5.8232 9.2374 5.8232 8.7626 5.5303 8.4697L3.06066 6H9.5C11.0214 6 12.1209 6.61484 12.8552 7.5195C13.6043 8.4426 14 9.7049 14 11C14 12.2951 13.6043 13.5574 12.8552 14.4805C12.1209 15.3852 11.0214 16 9.5 16H3.25C2.83579 16 2.5 16.3358 2.5 16.75Z" fill="#242424"/>
</svg>
