<svg width="35" height="39" viewBox="0 0 35 39" fill="none" xmlns="http://www.w3.org/2000/svg">
<path d="M30.3914 7.49126C29.6466 6.66089 28.7622 6.00218 27.7888 5.55277C26.8154 5.10335 25.7721 4.87204 24.7185 4.87204C23.6649 4.87204 22.6216 5.10335 21.6482 5.55277C20.6748 6.00218 19.7905 6.66089 19.0456 7.49126L17.4998 9.21376L15.9539 7.49126C14.4494 5.81476 12.4088 4.87291 10.281 4.87291C8.15326 4.87291 6.11265 5.81476 4.6081 7.49126C3.10355 9.16776 2.2583 11.4416 2.2583 13.8125C2.2583 16.1834 3.10355 18.4573 4.6081 20.1338L6.15393 21.8563L17.4998 34.4988L28.8456 21.8563L30.3914 20.1338C31.1366 19.3038 31.7278 18.3183 32.1311 17.2337C32.5344 16.1491 32.742 14.9865 32.742 13.8125C32.742 12.6385 32.5344 11.4759 32.1311 10.3913C31.7278 9.30668 31.1366 8.32123 30.3914 7.49126Z" fill="white" stroke="#212121" stroke-width="3" stroke-linecap="round"/>
</svg>
